<svg width="32" height="32" viewBox="0 0 32 32" fill="none" xmlns="http://www.w3.org/2000/svg">
  <rect width="32" height="32" rx="6" fill="#8B5CF6"/>
  <path d="M9 10H14V12H12.5V22H10.5V12H9V10Z" fill="white"/>
  <path d="M15 10H18.5L20 13L21.5 10H25V22H23V13L21 17H19L17 13V22H15V10Z" fill="white"/>
  <path d="M25.5 10L28 14L30.5 10H33L29.25 16L33 22H30.5L28 18L25.5 22H23L26.75 16L23 10H25.5Z" fill="white"/>
  <!-- Simplified X to fit better -->
  <rect x="7" y="10" width="18" height="2" fill="white" opacity="0.2"/>
</svg>
