<svg width="32" height="32" viewBox="0 0 32 32" fill="none" xmlns="http://www.w3.org/2000/svg">
  <rect width="32" height="32" rx="8" fill="url(#paint0_linear)"/>
  <path d="M7 10H14V12H11.5V22H9.5V12H7V10Z" fill="white"/>
  <path d="M15 10H18.5L20 13.5L21.5 10H25V22H23V13.5L21 18.5H19L17 13.5V22H15V10Z" fill="white"/>
  <path d="M22 10L25 15L28 10H30.5L26.5 16L31 22H28.5L25 17L21.5 22H19L23.5 16L19.5 10H22Z" fill="white"/>
  <defs>
    <linearGradient id="paint0_linear" x1="0" y1="0" x2="32" y2="32" gradientUnits="userSpaceOnUse">
      <stop stop-color="#8B5CF6"/>
      <stop offset="1" stop-color="#D946EF"/>
    </linearGradient>
  </defs>
</svg>
